<svg xmlns="http://www.w3.org/2000/svg" xmlns:xlink="http://www.w3.org/1999/xlink" width="500" zoomAndPan="magnify" viewBox="0 0 375 374.999991" height="500" preserveAspectRatio="xMidYMid meet" version="1.0"><defs><g/><clipPath id="0456d998e2"><path d="M 136 94 L 239 94 L 239 219 L 136 219 Z M 136 94 " clip-rule="nonzero"/></clipPath><clipPath id="e262073101"><path d="M 126.578125 110.785156 L 212.660156 84.523438 L 248.335938 201.449219 L 162.25 227.714844 Z M 126.578125 110.785156 " clip-rule="nonzero"/></clipPath><clipPath id="6d9fa70b5a"><path d="M 126.574219 110.78125 L 212.65625 84.515625 L 248.332031 201.445312 L 162.25 227.710938 Z M 126.574219 110.78125 " clip-rule="nonzero"/></clipPath><clipPath id="9b00667450"><path d="M 126.574219 110.78125 L 212.65625 84.515625 L 248.332031 201.445312 L 162.25 227.710938 Z M 126.574219 110.78125 " clip-rule="nonzero"/></clipPath><clipPath id="c0724b4935"><path d="M 181 159 L 202 159 L 202 188 L 181 188 Z M 181 159 " clip-rule="nonzero"/></clipPath><clipPath id="e12f63b5db"><path d="M 126.578125 110.785156 L 212.660156 84.523438 L 248.335938 201.449219 L 162.25 227.714844 Z M 126.578125 110.785156 " clip-rule="nonzero"/></clipPath><clipPath id="6fce84d1bf"><path d="M 126.574219 110.78125 L 212.65625 84.515625 L 248.332031 201.445312 L 162.25 227.710938 Z M 126.574219 110.78125 " clip-rule="nonzero"/></clipPath><clipPath id="b148042304"><path d="M 126.574219 110.78125 L 212.65625 84.515625 L 248.332031 201.445312 L 162.25 227.710938 Z M 126.574219 110.78125 " clip-rule="nonzero"/></clipPath><clipPath id="324bacf032"><path d="M 112.5 81.253906 L 262.5 81.253906 L 262.5 231.253906 L 112.5 231.253906 Z M 112.5 81.253906 " clip-rule="nonzero"/></clipPath></defs><g clip-path="url(#0456d998e2)"><g clip-path="url(#e262073101)"><g clip-path="url(#6d9fa70b5a)"><g clip-path="url(#9b00667450)"><path fill="#14132d" d="M 158.660156 100.992188 C 155.074219 104.621094 152.136719 109.648438 150.074219 115.789062 C 147.0625 124.78125 146.476562 134.804688 148.550781 141.949219 C 151.667969 152.730469 160.195312 154.5 166.402344 154.753906 C 167.453125 154.800781 168.234375 153.808594 167.96875 152.792969 C 164.578125 139.90625 167.417969 129.925781 178.402344 126.574219 C 189.902344 123.066406 197.488281 130.152344 201.820312 142.875 C 202.144531 143.820312 203.25 144.222656 204.109375 143.707031 C 209.515625 140.480469 215.222656 134.515625 211.949219 123.3125 C 209.882812 116.160156 204.035156 108.023438 196.691406 102.074219 C 191.683594 98.019531 186.539062 95.375 181.582031 94.253906 C 201.046875 93.160156 218.390625 103.402344 223.195312 120 C 226.15625 130.164062 223.425781 139.269531 215.070312 147.054688 L 213.890625 148.152344 L 215.480469 148.40625 C 227.070312 150.230469 234.496094 156.496094 237.542969 167.019531 C 242.347656 183.625 233.199219 201.652344 216.210938 211.261719 C 219.792969 207.636719 222.726562 202.617188 224.78125 196.484375 C 227.792969 187.488281 228.371094 177.460938 226.285156 170.320312 C 225.480469 167.558594 224.230469 165.246094 222.476562 163.277344 C 222.167969 162.929688 221.648438 162.855469 221.261719 163.113281 C 220.894531 163.351562 220.75 163.816406 220.902344 164.226562 C 226.253906 178.511719 219.894531 192.300781 209.683594 199.164062 C 211.726562 196.488281 213.347656 192.917969 214.441406 188.609375 C 216.199219 181.660156 216.265625 173.824219 214.609375 168.15625 C 212.53125 161.015625 208.230469 159.027344 206.015625 158.316406 C 205.480469 158.144531 204.949219 158.582031 205.011719 159.136719 C 205.628906 164.796875 207.746094 189.359375 198.425781 192.203125 C 192.859375 193.902344 183.738281 186.160156 174.496094 168.398438 C 174.21875 167.871094 173.484375 167.832031 173.152344 168.328125 C 171.164062 171.308594 169.730469 174.863281 171.449219 180.773438 C 173.097656 186.445312 177.371094 193.015625 182.597656 197.921875 C 185.832031 200.960938 189.121094 203.09375 192.277344 204.246094 C 189.144531 204.171875 168.542969 202.039062 164.152344 181.476562 C 164.0625 181.042969 163.683594 180.734375 163.25 180.738281 L 163.246094 180.738281 C 162.78125 180.742188 162.394531 181.089844 162.332031 181.550781 C 162 184.042969 162.1875 186.472656 162.90625 188.957031 C 164.972656 196.109375 170.820312 204.253906 178.167969 210.203125 C 183.183594 214.265625 188.347656 216.910156 193.304688 218.027344 C 173.84375 219.144531 156.496094 208.902344 151.683594 192.28125 C 148.714844 182.089844 151.4375 172.992188 159.769531 165.238281 L 160.949219 164.144531 L 159.359375 163.886719 C 147.769531 162.03125 140.359375 155.765625 137.324219 145.257812 C 132.496094 128.636719 141.652344 110.601562 158.660156 100.992188 Z M 158.660156 100.992188 " fill-opacity="1" fill-rule="nonzero"/></g></g></g></g><g clip-path="url(#c0724b4935)"><g clip-path="url(#e12f63b5db)"><g clip-path="url(#6fce84d1bf)"><g clip-path="url(#b148042304)"><path fill="#e51c47" d="M 197.09375 187.792969 C 194.625 188.542969 189.394531 184.421875 183.253906 175.488281 C 179.453125 169.957031 182.042969 162.257812 188.476562 160.273438 C 188.515625 160.261719 188.554688 160.246094 188.597656 160.234375 L 188.671875 160.210938 C 188.714844 160.199219 188.753906 160.1875 188.792969 160.175781 C 195.269531 158.234375 201.722656 163.195312 201.6875 169.945312 C 201.632812 180.132812 199.992188 186.90625 197.09375 187.792969 Z M 197.09375 187.792969 " fill-opacity="1" fill-rule="nonzero"/></g></g></g></g><g clip-path="url(#324bacf032)"><path fill="#000000" d="M 188.019531 225.011719 L 188.027344 223.171875 L 190.742188 223.171875 L 190.742188 222.839844 L 188.027344 222.839844 L 188.054688 214.917969 L 190.742188 214.917969 L 190.742188 214.585938 L 188.054688 214.585938 L 188.042969 206.667969 L 190.742188 206.667969 L 190.742188 206.335938 L 188.042969 206.335938 L 188.03125 198.417969 L 190.742188 198.417969 L 190.742188 198.085938 L 188.027344 198.085938 L 188.023438 194.433594 C 208.765625 194.152344 225.578125 177.332031 225.765625 156.609375 L 229.257812 156.617188 L 229.257812 159.328125 L 229.589844 159.328125 L 229.589844 156.617188 L 237.527344 156.628906 L 237.527344 159.328125 L 237.859375 159.328125 L 237.859375 156.628906 L 245.796875 156.644531 L 245.796875 159.328125 L 246.128906 159.328125 L 246.128906 156.644531 L 254.066406 156.617188 L 254.066406 159.328125 L 254.398438 159.328125 L 254.398438 156.617188 L 256.414062 156.609375 C 256.222656 194.191406 225.667969 224.730469 188.019531 225.011719 Z M 118.585938 156.609375 L 120.601562 156.617188 L 120.601562 159.328125 L 120.933594 159.328125 L 120.933594 156.617188 L 128.871094 156.644531 L 128.871094 159.328125 L 129.203125 159.328125 L 129.203125 156.644531 L 137.140625 156.628906 L 137.140625 159.328125 L 137.472656 159.328125 L 137.472656 156.628906 L 145.410156 156.617188 L 145.410156 159.328125 L 145.742188 159.328125 L 145.742188 156.617188 L 149.234375 156.609375 C 149.425781 177.441406 166.414062 194.339844 187.308594 194.441406 L 187.304688 198.085938 L 184.589844 198.085938 L 184.589844 198.417969 L 187.304688 198.417969 L 187.292969 206.335938 L 184.589844 206.335938 L 184.589844 206.667969 L 187.292969 206.667969 L 187.277344 214.585938 L 184.589844 214.585938 L 184.589844 214.917969 L 187.277344 214.917969 L 187.304688 222.839844 L 184.589844 222.839844 L 184.589844 223.171875 L 187.304688 223.171875 L 187.3125 225.019531 C 149.511719 224.917969 118.777344 194.300781 118.585938 156.609375 Z M 187.3125 87.492188 L 187.304688 89.339844 L 184.589844 89.339844 L 184.589844 89.671875 L 187.304688 89.671875 L 187.277344 97.589844 L 184.589844 97.589844 L 184.589844 97.921875 L 187.277344 97.921875 L 187.292969 105.839844 L 184.589844 105.839844 L 184.589844 106.171875 L 187.292969 106.171875 L 187.304688 114.089844 L 184.589844 114.089844 L 184.589844 114.421875 L 187.304688 114.421875 L 187.308594 118.066406 C 166.414062 118.167969 149.425781 135.066406 149.234375 155.898438 L 145.742188 155.894531 L 145.742188 153.183594 L 145.410156 153.183594 L 145.410156 155.890625 L 137.472656 155.878906 L 137.472656 153.183594 L 137.140625 153.183594 L 137.140625 155.878906 L 129.203125 155.867188 L 129.203125 153.183594 L 128.871094 153.183594 L 128.871094 155.867188 L 120.933594 155.894531 L 120.933594 153.183594 L 120.601562 153.183594 L 120.601562 155.894531 L 118.585938 155.902344 C 118.777344 118.207031 149.511719 87.59375 187.3125 87.492188 Z M 220.988281 153.183594 L 220.988281 155.90625 L 213.054688 155.917969 L 213.054688 153.183594 L 212.71875 153.183594 L 212.71875 155.921875 C 210.074219 155.9375 207.429688 155.957031 204.78125 156 L 204.78125 153.183594 L 204.449219 153.183594 L 204.449219 156.007812 C 201.75 156.054688 199.046875 156.128906 196.347656 156.253906 C 199.046875 156.382812 201.75 156.453125 204.449219 156.5 L 204.449219 159.328125 L 204.78125 159.328125 L 204.78125 156.507812 C 207.429688 156.550781 210.074219 156.570312 212.71875 156.585938 L 212.71875 159.328125 L 213.054688 159.328125 L 213.054688 156.589844 L 220.988281 156.601562 L 220.988281 159.328125 L 221.324219 159.328125 L 221.324219 156.605469 L 225.101562 156.609375 C 224.910156 176.964844 208.402344 193.488281 188.019531 193.769531 L 188.015625 190.167969 L 190.742188 190.167969 L 190.742188 189.835938 L 188.015625 189.835938 L 188 181.917969 L 190.742188 181.917969 L 190.742188 181.582031 L 188 181.582031 C 187.984375 178.945312 187.964844 176.304688 187.917969 173.667969 L 190.742188 173.667969 L 190.742188 173.332031 L 187.914062 173.332031 C 187.867188 170.636719 187.789062 167.941406 187.667969 165.25 C 187.539062 167.941406 187.46875 170.636719 187.421875 173.332031 L 184.589844 173.332031 L 184.589844 173.667969 L 187.414062 173.667969 C 187.367188 176.304688 187.351562 178.945312 187.332031 181.582031 L 184.589844 181.582031 L 184.589844 181.917969 L 187.332031 181.917969 L 187.316406 189.835938 L 184.589844 189.835938 L 184.589844 190.167969 L 187.316406 190.167969 L 187.3125 193.777344 C 166.777344 193.675781 150.089844 177.078125 149.898438 156.609375 L 153.675781 156.605469 L 153.675781 159.328125 L 154.011719 159.328125 L 154.011719 156.601562 L 161.945312 156.589844 L 161.945312 159.328125 L 162.277344 159.328125 L 162.277344 156.585938 C 164.925781 156.570312 167.570312 156.550781 170.21875 156.507812 L 170.21875 159.328125 L 170.550781 159.328125 L 170.550781 156.5 C 173.25 156.453125 175.953125 156.382812 178.652344 156.253906 C 175.953125 156.128906 173.25 156.054688 170.550781 156.007812 L 170.550781 153.183594 L 170.21875 153.183594 L 170.21875 156 C 167.570312 155.957031 164.925781 155.9375 162.277344 155.921875 L 162.277344 153.183594 L 161.945312 153.183594 L 161.945312 155.917969 L 154.011719 155.90625 L 154.011719 153.183594 L 153.675781 153.183594 L 153.675781 155.90625 L 149.898438 155.898438 C 150.089844 135.433594 166.777344 118.835938 187.3125 118.734375 L 187.316406 122.34375 L 184.589844 122.34375 L 184.589844 122.675781 L 187.316406 122.675781 L 187.332031 130.59375 L 184.589844 130.59375 L 184.589844 130.925781 L 187.332031 130.925781 C 187.351562 133.566406 187.367188 136.203125 187.414062 138.84375 L 184.589844 138.84375 L 184.589844 139.175781 L 187.421875 139.175781 C 187.46875 141.871094 187.539062 144.566406 187.667969 147.257812 C 187.789062 144.566406 187.867188 141.871094 187.914062 139.175781 L 190.742188 139.175781 L 190.742188 138.84375 L 187.917969 138.84375 C 187.964844 136.203125 187.984375 133.566406 188 130.925781 L 190.742188 130.925781 L 190.742188 130.59375 L 188 130.59375 L 188.015625 122.675781 L 190.742188 122.675781 L 190.742188 122.34375 L 188.015625 122.34375 L 188.019531 118.742188 C 208.402344 119.019531 224.910156 135.546875 225.101562 155.898438 L 221.324219 155.90625 L 221.324219 153.183594 Z M 256.414062 155.902344 L 254.398438 155.894531 L 254.398438 153.183594 L 254.066406 153.183594 L 254.066406 155.894531 L 246.128906 155.867188 L 246.128906 153.183594 L 245.796875 153.183594 L 245.796875 155.867188 L 237.859375 155.878906 L 237.859375 153.183594 L 237.527344 153.183594 L 237.527344 155.878906 L 229.589844 155.890625 L 229.589844 153.183594 L 229.257812 153.183594 L 229.257812 155.894531 L 225.765625 155.898438 C 225.578125 135.175781 208.765625 118.355469 188.023438 118.074219 L 188.027344 114.421875 L 190.742188 114.421875 L 190.742188 114.089844 L 188.03125 114.089844 L 188.042969 106.171875 L 190.742188 106.171875 L 190.742188 105.839844 L 188.042969 105.839844 L 188.054688 97.921875 L 190.742188 97.921875 L 190.742188 97.589844 L 188.054688 97.589844 L 188.027344 89.671875 L 190.742188 89.671875 L 190.742188 89.339844 L 188.027344 89.339844 L 188.019531 87.5 C 225.667969 87.78125 256.222656 118.320312 256.414062 155.902344 Z M 262.5 155.921875 L 258.410156 155.90625 C 258.222656 117.21875 226.765625 85.78125 188.011719 85.503906 L 188 81.253906 L 187.332031 81.253906 L 187.320312 85.496094 C 148.414062 85.59375 116.777344 117.109375 116.589844 155.90625 L 112.5 155.921875 L 112.5 156.585938 L 116.589844 156.601562 C 116.777344 195.398438 148.414062 226.917969 187.320312 227.015625 L 187.332031 231.253906 L 188 231.253906 L 188.011719 227.003906 C 226.765625 226.730469 258.222656 195.289062 258.410156 156.601562 L 262.5 156.585938 L 262.5 155.921875 " fill-opacity="1" fill-rule="nonzero"/></g><g fill="#14132d" fill-opacity="1"><g transform="translate(136.220393, 261.284047)"><g><path d="M 12.75 -9.359375 C 14.484375 -9.96875 15.390625 -11.171875 15.390625 -12.859375 C 15.390625 -15.171875 13.78125 -16.875 10.96875 -17.21875 C 10.09375 -17.328125 9.640625 -17.328125 8.734375 -17.328125 L 2.140625 -17.328125 L 2.140625 0 L 8.71875 0 C 9.75 0 10.3125 0 11.171875 -0.09375 C 13.515625 -0.40625 16.015625 -1.984375 16.015625 -5.203125 C 16.015625 -7.375 14.96875 -8.78125 12.75 -9.359375 Z M 6.078125 -14.265625 L 8.359375 -14.265625 C 8.765625 -14.265625 9.21875 -14.234375 9.5625 -14.1875 C 10.59375 -14.03125 11.28125 -13.484375 11.28125 -12.328125 C 11.28125 -11.171875 10.671875 -10.59375 9.59375 -10.421875 C 9.234375 -10.375 8.84375 -10.34375 8.4375 -10.34375 L 6.078125 -10.34375 Z M 9.96875 -3.109375 C 9.640625 -3.09375 9.234375 -3.09375 8.84375 -3.09375 L 6.078125 -3.09375 L 6.078125 -7.453125 L 8.6875 -7.453125 C 9.09375 -7.453125 9.484375 -7.453125 9.890625 -7.40625 C 11 -7.3125 11.90625 -6.65625 11.90625 -5.25 C 11.90625 -3.9375 11 -3.1875 9.96875 -3.109375 Z M 9.96875 -3.109375 "/></g></g></g><g fill="#14132d" fill-opacity="1"><g transform="translate(152.987373, 261.284047)"><g><path d="M 14.265625 -13.390625 L 10.34375 -13.390625 L 10.34375 -6.234375 C 10.34375 -3.765625 9.296875 -2.390625 7.6875 -2.390625 C 6.15625 -2.390625 5.453125 -3.1875 5.265625 -4.546875 C 5.203125 -5.21875 5.171875 -5.953125 5.171875 -6.375 L 5.171875 -13.390625 L 1.25 -13.390625 L 1.25 -5.53125 C 1.25 -4.4375 1.28125 -3.71875 1.375 -3.03125 C 1.6875 -1.203125 3.34375 0.34375 6.09375 0.34375 C 7.359375 0.34375 8.3125 0.09375 9.21875 -0.5 L 10.34375 -2.28125 L 10.34375 0 L 14.265625 0 Z M 14.265625 -13.390625 "/></g></g></g><g fill="#14132d" fill-opacity="1"><g transform="translate(168.750339, 261.284047)"><g><path d="M 14.96875 -13.390625 L 11.015625 -13.390625 L 11.015625 -11.625 L 10.140625 -13.03125 C 9.46875 -13.453125 8.140625 -13.734375 7.03125 -13.734375 C 3.59375 -13.734375 0.65625 -11.375 0.65625 -6.578125 C 0.65625 -2.609375 3.0625 -0.03125 6.78125 -0.03125 C 8.140625 -0.03125 9.265625 -0.34375 10.015625 -0.90625 L 11.015625 -2.390625 L 11.015625 -2.03125 C 11.015625 -1.40625 11 -0.828125 10.96875 -0.34375 C 10.875 1.625 9.59375 2.5625 7.65625 2.5625 C 6.03125 2.5625 4.953125 1.90625 4.828125 0.828125 L 4.796875 0.609375 L 0.984375 0.609375 L 1 0.859375 C 1.3125 3.84375 3.609375 5.46875 7.5625 5.46875 C 11.921875 5.46875 14.796875 3.484375 14.9375 -0.796875 C 14.96875 -1.53125 14.96875 -2.5625 14.96875 -3.390625 Z M 7.828125 -2.734375 C 5.96875 -2.734375 4.703125 -4.25 4.703125 -6.875 C 4.703125 -9.796875 6.046875 -11.015625 7.953125 -11.015625 C 9.4375 -11.015625 11.015625 -10.015625 11.015625 -7.15625 L 11.015625 -6.90625 C 11.015625 -3.84375 9.609375 -2.734375 7.828125 -2.734375 Z M 7.828125 -2.734375 "/></g></g></g><g fill="#14132d" fill-opacity="1"><g transform="translate(185.216125, 261.284047)"><g><path d="M 6.609375 -13.734375 C 3.234375 -13.734375 1.03125 -12.125 1.03125 -9.515625 C 1.03125 -7.234375 2.65625 -6.09375 5.171875 -5.46875 C 7.53125 -4.921875 8.390625 -4.390625 8.390625 -3.4375 C 8.390625 -2.59375 7.640625 -2.1875 6.671875 -2.1875 C 5.578125 -2.1875 4.671875 -2.859375 4.390625 -4.125 L 0.5 -4.125 C 0.859375 -1.109375 3.234375 0.34375 6.65625 0.34375 C 9.796875 0.34375 12.328125 -0.953125 12.328125 -3.734375 C 12.328125 -6.25 10.671875 -7.328125 8.078125 -7.984375 C 5.703125 -8.59375 4.96875 -9.09375 4.96875 -10 C 4.96875 -10.703125 5.5 -11.21875 6.359375 -11.21875 C 7.328125 -11.21875 7.90625 -10.59375 8.140625 -9.484375 L 12.03125 -9.484375 C 11.703125 -11.921875 9.84375 -13.734375 6.609375 -13.734375 Z M 6.609375 -13.734375 "/></g></g></g><g fill="#14132d" fill-opacity="1"><g transform="translate(198.04236, 261.284047)"><g><path d="M 14.390625 -10.046875 C 14.09375 -12.375 12.453125 -13.734375 9.640625 -13.734375 C 8.390625 -13.734375 7.4375 -13.484375 6.53125 -12.875 L 5.421875 -11.28125 L 5.421875 -18.578125 L 1.484375 -18.578125 L 1.484375 0 L 5.421875 0 L 5.421875 -6.203125 C 5.421875 -9.609375 6.578125 -11 8.140625 -11.015625 C 9.671875 -11.015625 10.421875 -10.171875 10.515625 -8.8125 C 10.578125 -8.140625 10.578125 -7.453125 10.578125 -6.953125 L 10.578125 0 L 14.515625 0 L 14.515625 -7.5625 C 14.515625 -8.640625 14.484375 -9.359375 14.390625 -10.046875 Z M 14.390625 -10.046875 "/></g></g></g><g fill="#14132d" fill-opacity="1"><g transform="translate(213.880639, 261.284047)"><g><path d="M 7.703125 -13.734375 C 3.265625 -13.734375 0.65625 -10.875 0.65625 -6.703125 C 0.65625 -2.53125 3.265625 0.34375 7.703125 0.34375 C 12.125 0.34375 14.765625 -2.53125 14.765625 -6.703125 C 14.765625 -10.875 12.125 -13.734375 7.703125 -13.734375 Z M 7.703125 -2.359375 C 5.828125 -2.359375 4.703125 -3.921875 4.703125 -6.703125 C 4.703125 -9.484375 5.828125 -11.015625 7.703125 -11.015625 C 9.5625 -11.015625 10.703125 -9.484375 10.703125 -6.703125 C 10.703125 -3.921875 9.5625 -2.359375 7.703125 -2.359375 Z M 7.703125 -2.359375 "/></g></g></g><g fill="#14132d" fill-opacity="1"><g transform="translate(229.267112, 261.284047)"><g><path d="M 6.203125 -10.765625 L 9.046875 -10.765625 L 9.046875 -13.28125 L 6.203125 -13.28125 L 6.203125 -16.640625 L 2.265625 -16.640625 L 2.265625 -13.28125 L 0.21875 -13.28125 L 0.21875 -10.765625 L 2.265625 -10.765625 L 2.265625 -4.625 C 2.265625 -3.859375 2.265625 -3.265625 2.3125 -2.59375 C 2.453125 -0.625 3.421875 0.328125 6.359375 0.328125 C 7.203125 0.328125 7.984375 0.25 8.78125 0.125 L 8.78125 -2.390625 C 6.78125 -2.265625 6.328125 -2.5625 6.234375 -3.890625 C 6.203125 -4.25 6.203125 -4.703125 6.203125 -5.140625 Z M 6.203125 -10.765625 "/></g></g></g><g fill="#e51c47" fill-opacity="1"><g transform="translate(130.229382, 282.42703)"><g><path d="M 5.34375 -0.671875 L 1.78125 -0.671875 L 1.78125 -2.96875 L 4.96875 -2.96875 L 4.96875 -3.640625 L 1.78125 -3.640625 L 1.78125 -5.921875 L 5.25 -5.921875 L 5.25 -6.59375 L 0.953125 -6.59375 L 0.953125 0 L 5.34375 0 Z M 5.34375 -0.671875 "/></g></g></g><g fill="#e51c47" fill-opacity="1"><g transform="translate(136.989448, 282.42703)"><g><path d="M 5.34375 -0.671875 L 1.78125 -0.671875 L 1.78125 -6.59375 L 0.953125 -6.59375 L 0.953125 0 L 5.34375 0 Z M 5.34375 -0.671875 "/></g></g></g><g fill="#e51c47" fill-opacity="1"><g transform="translate(143.634791, 282.42703)"><g><path d="M 1.78125 0 L 1.78125 -6.59375 L 0.953125 -6.59375 L 0.953125 0 Z M 1.78125 0 "/></g></g></g><g fill="#e51c47" fill-opacity="1"><g transform="translate(147.306787, 282.42703)"><g><path d="M 7.53125 -6.59375 L 6.203125 -6.59375 L 4.265625 -0.703125 L 2.3125 -6.59375 L 0.953125 -6.59375 L 0.953125 0 L 1.78125 0 L 1.78125 -3.390625 C 1.78125 -4.203125 1.78125 -5.109375 1.765625 -5.828125 C 1.96875 -5.125 2.28125 -4.203125 2.546875 -3.421875 L 3.734375 0 L 4.765625 0 L 5.921875 -3.40625 C 6.203125 -4.203125 6.515625 -5.140625 6.734375 -5.859375 C 6.71875 -5.140625 6.71875 -4.21875 6.71875 -3.390625 L 6.71875 0 L 7.53125 0 Z M 7.53125 -6.59375 "/></g></g></g><g fill="#e51c47" fill-opacity="1"><g transform="translate(156.734254, 282.42703)"><g><path d="M 1.78125 0 L 1.78125 -6.59375 L 0.953125 -6.59375 L 0.953125 0 Z M 1.78125 0 "/></g></g></g><g fill="#e51c47" fill-opacity="1"><g transform="translate(160.406248, 282.42703)"><g><path d="M 6.125 0 L 6.09375 -6.59375 L 5.296875 -6.59375 L 5.296875 -3.296875 C 5.296875 -2.53125 5.3125 -1.578125 5.328125 -0.796875 L 2.21875 -6.59375 L 0.953125 -6.59375 L 0.953125 0 L 1.78125 0 L 1.78125 -3.296875 C 1.78125 -4.078125 1.765625 -5.015625 1.75 -5.796875 L 4.859375 0 Z M 6.125 0 "/></g></g></g><g fill="#e51c47" fill-opacity="1"><g transform="translate(168.418753, 282.42703)"><g><path d="M 4.359375 -2.328125 L 5.140625 0 L 6.03125 0 L 3.765625 -6.59375 L 2.65625 -6.59375 L 0.28125 0 L 1.15625 0 L 1.9375 -2.328125 Z M 2.15625 -3 L 3.1875 -5.953125 L 4.140625 -3 Z M 2.15625 -3 "/></g></g></g><g fill="#e51c47" fill-opacity="1"><g transform="translate(175.675972, 282.42703)"><g><path d="M 5.859375 -5.921875 L 5.859375 -6.59375 L 0.328125 -6.59375 L 0.328125 -5.921875 L 2.671875 -5.921875 L 2.671875 0 L 3.5 0 L 3.5 -5.921875 Z M 5.859375 -5.921875 "/></g></g></g><g fill="#e51c47" fill-opacity="1"><g transform="translate(182.675058, 282.42703)"><g><path d="M 5.34375 -0.671875 L 1.78125 -0.671875 L 1.78125 -2.96875 L 4.96875 -2.96875 L 4.96875 -3.640625 L 1.78125 -3.640625 L 1.78125 -5.921875 L 5.25 -5.921875 L 5.25 -6.59375 L 0.953125 -6.59375 L 0.953125 0 L 5.34375 0 Z M 5.34375 -0.671875 "/></g></g></g><g fill="#e51c47" fill-opacity="1"><g transform="translate(189.435127, 282.42703)"><g/></g></g><g fill="#e51c47" fill-opacity="1"><g transform="translate(192.64821, 282.42703)"><g><path d="M 4.359375 -2.328125 L 5.140625 0 L 6.03125 0 L 3.765625 -6.59375 L 2.65625 -6.59375 L 0.28125 0 L 1.15625 0 L 1.9375 -2.328125 Z M 2.15625 -3 L 3.1875 -5.953125 L 4.140625 -3 Z M 2.15625 -3 "/></g></g></g><g fill="#e51c47" fill-opacity="1"><g transform="translate(199.905429, 282.42703)"><g><path d="M 5.34375 -0.671875 L 1.78125 -0.671875 L 1.78125 -6.59375 L 0.953125 -6.59375 L 0.953125 0 L 5.34375 0 Z M 5.34375 -0.671875 "/></g></g></g><g fill="#e51c47" fill-opacity="1"><g transform="translate(206.55077, 282.42703)"><g><path d="M 5.34375 -0.671875 L 1.78125 -0.671875 L 1.78125 -6.59375 L 0.953125 -6.59375 L 0.953125 0 L 5.34375 0 Z M 5.34375 -0.671875 "/></g></g></g><g fill="#e51c47" fill-opacity="1"><g transform="translate(213.196111, 282.42703)"><g/></g></g><g fill="#e51c47" fill-opacity="1"><g transform="translate(216.409194, 282.42703)"><g><path d="M 4.265625 -3.515625 C 4.9375 -3.734375 5.390625 -4.15625 5.390625 -4.953125 C 5.390625 -5.890625 4.796875 -6.421875 3.765625 -6.5625 C 3.4375 -6.59375 3.21875 -6.59375 2.890625 -6.59375 L 0.953125 -6.59375 L 0.953125 0 L 3.078125 0 C 3.390625 0 3.59375 0 3.921875 -0.046875 C 4.796875 -0.1875 5.625 -0.734375 5.625 -1.9375 C 5.625 -2.84375 5.140625 -3.3125 4.265625 -3.515625 Z M 1.78125 -5.921875 L 2.96875 -5.921875 C 3.125 -5.921875 3.3125 -5.921875 3.484375 -5.90625 C 4.078125 -5.84375 4.5 -5.53125 4.5 -4.890625 C 4.5 -4.296875 4.25 -3.90625 3.578125 -3.796875 C 3.390625 -3.765625 3.21875 -3.765625 3.046875 -3.765625 L 1.78125 -3.765625 Z M 3.65625 -0.6875 C 3.53125 -0.671875 3.359375 -0.671875 3.203125 -0.671875 L 1.78125 -0.671875 L 1.78125 -3.09375 L 3.140625 -3.09375 C 3.296875 -3.09375 3.453125 -3.078125 3.671875 -3.046875 C 4.296875 -2.96875 4.75 -2.671875 4.75 -1.859375 C 4.75 -1.140625 4.296875 -0.75 3.65625 -0.6875 Z M 3.65625 -0.6875 "/></g></g></g><g fill="#e51c47" fill-opacity="1"><g transform="translate(223.551688, 282.42703)"><g><path d="M 5.859375 -6.59375 L 5.03125 -6.59375 L 5.03125 -2.515625 C 5.03125 -2.296875 5.03125 -2.109375 5.015625 -1.9375 C 4.9375 -1.09375 4.390625 -0.515625 3.375 -0.515625 C 2.359375 -0.515625 1.8125 -1.09375 1.734375 -1.9375 C 1.71875 -2.109375 1.71875 -2.296875 1.71875 -2.515625 L 1.71875 -6.59375 L 0.90625 -6.59375 L 0.90625 -2.4375 C 0.90625 -2.234375 0.90625 -2.03125 0.921875 -1.84375 C 1.015625 -0.75 1.765625 0.140625 3.375 0.140625 C 4.984375 0.140625 5.734375 -0.75 5.828125 -1.84375 C 5.859375 -2.03125 5.859375 -2.234375 5.859375 -2.4375 Z M 5.859375 -6.59375 "/></g></g></g><g fill="#e51c47" fill-opacity="1"><g transform="translate(231.220007, 282.42703)"><g><path d="M 3.8125 -3.1875 L 3.8125 -2.515625 L 5.359375 -2.515625 C 5.359375 -1.34375 4.5625 -0.515625 3.484375 -0.515625 C 2.1875 -0.515625 1.375 -1.6875 1.375 -3.3125 C 1.375 -4.90625 2.203125 -6.078125 3.546875 -6.078125 C 4.640625 -6.078125 5.234375 -5.4375 5.421875 -4.5 L 5.4375 -4.40625 L 6.265625 -4.40625 L 6.25 -4.5 C 6.125 -5.78125 5.234375 -6.734375 3.5625 -6.734375 C 1.6875 -6.734375 0.453125 -5.28125 0.453125 -3.265625 C 0.453125 -1.34375 1.515625 0.140625 3.4375 0.140625 C 4.203125 0.140625 4.78125 -0.109375 5.15625 -0.53125 L 5.453125 -1.140625 L 5.453125 0 L 6.171875 0 L 6.171875 -3.1875 Z M 3.8125 -3.1875 "/></g></g></g><g fill="#e51c47" fill-opacity="1"><g transform="translate(239.156029, 282.42703)"><g><path d="M 3 -6.734375 C 1.78125 -6.734375 0.796875 -6.015625 0.796875 -4.875 C 0.796875 -3.78125 1.609375 -3.3125 2.78125 -3.046875 C 3.9375 -2.78125 4.40625 -2.421875 4.40625 -1.609375 C 4.40625 -0.921875 3.78125 -0.515625 3.03125 -0.515625 C 2.171875 -0.515625 1.5625 -1 1.375 -1.875 L 0.5 -1.875 C 0.640625 -0.609375 1.5625 0.140625 3.015625 0.140625 C 4.28125 0.140625 5.28125 -0.609375 5.28125 -1.765625 C 5.28125 -2.890625 4.546875 -3.484375 3.09375 -3.8125 C 2.09375 -4.046875 1.6875 -4.34375 1.6875 -5.0625 C 1.6875 -5.75 2.234375 -6.078125 2.9375 -6.078125 C 3.765625 -6.078125 4.25 -5.609375 4.328125 -4.765625 L 5.21875 -4.765625 C 5.09375 -5.90625 4.375 -6.734375 3 -6.734375 Z M 3 -6.734375 "/></g></g></g></svg>