<svg version="1.2" xmlns="http://www.w3.org/2000/svg" viewBox="0 0 152 149" width="152" height="149"><defs><clipPath clipPathUnits="userSpaceOnUse" id="cp1"><path d="m24 11h103v125h-103z"/></clipPath><clipPath clipPathUnits="userSpaceOnUse" id="cp2"><path d="m14.58 27.79l86.08-26.27 35.68 116.93-86.09 26.26z"/></clipPath><clipPath clipPathUnits="userSpaceOnUse" id="cp3"><path d="m14.57 27.78l86.09-26.26 35.67 116.93-86.08 26.26z"/></clipPath><clipPath clipPathUnits="userSpaceOnUse" id="cp4"><path d="m69 76h21v30h-21z"/></clipPath><clipPath clipPathUnits="userSpaceOnUse" id="cp5"><path d="m14.58 27.79l86.08-26.27 35.68 116.93-86.09 26.26z"/></clipPath><clipPath clipPathUnits="userSpaceOnUse" id="cp6"><path d="m14.57 27.78l86.09-26.26 35.67 116.93-86.08 26.26z"/></clipPath><clipPath clipPathUnits="userSpaceOnUse" id="cp7"><path d="m0.5-1.75h150v150h-150z"/></clipPath></defs><style>.a{fill:#7c99ff}.b{fill:#cb6ce6}.c{fill:#fff}.d{fill:#14132d}</style><g clip-path="url(#cp1)"><g clip-path="url(#cp2)"><g clip-path="url(#cp3)"><path class="a" d="m46.7 18c-3.6 3.6-6.6 8.7-8.6 14.8-3 9-3.6 19.1-1.5 26.2 3.1 10.8 11.6 12.6 17.8 12.9 1.1 0 1.9-1 1.6-2-3.4-12.9-0.6-22.9 10.4-26.3 11.5-3.5 19.1 3.6 23.5 16.4 0.3 0.9 1.4 1.3 2.2 0.8 5.5-3.2 11.2-9.2 7.9-20.4-2.1-7.2-7.9-15.3-15.3-21.3-5-4.1-10.2-6.7-15.1-7.8 19.5-1.1 36.8 9.1 41.6 25.8 3 10.2 0.3 19.3-8.1 27.1l-1.2 1.1 1.6 0.2c11.6 1.9 19 8.2 22.1 18.7 4.8 16.7-4.3 34.7-21.3 44.3 3.6-3.6 6.5-8.6 8.6-14.8 3-9 3.5-19 1.4-26.2-0.8-2.8-2-5.1-3.8-7-0.3-0.4-0.8-0.5-1.2-0.2-0.4 0.2-0.5 0.7-0.3 1.1 5.3 14.3-1 28.1-11.2 35 2-2.7 3.6-6.2 4.7-10.6 1.8-6.9 1.8-14.8 0.2-20.5-2.1-7.1-6.4-9.1-8.6-9.8-0.6-0.2-1.1 0.2-1 0.8 0.6 5.7 2.7 30.3-6.6 33.1-5.6 1.7-14.7-6-24-23.8-0.2-0.6-1-0.6-1.3-0.1-2 3-3.4 6.5-1.7 12.5 1.7 5.6 5.9 12.2 11.2 17.2 3.2 3 6.5 5.1 9.7 6.3-3.2-0.1-23.8-2.2-28.2-22.8-0.1-0.5-0.5-0.8-0.9-0.8-0.5 0-0.9 0.4-0.9 0.8-0.3 2.5-0.2 5 0.6 7.5 2 7.1 7.9 15.3 15.2 21.3 5.1 4 10.2 6.7 15.2 7.8-19.5 1.1-36.8-9.2-41.7-25.8-2.9-10.2-0.2-19.4 8.1-27.1l1.2-1.1-1.6-0.3c-11.6-1.8-19-8.1-22.1-18.7-4.8-16.6 4.4-34.7 21.4-44.3z"/></g></g></g><g clip-path="url(#cp4)"><g clip-path="url(#cp5)"><g clip-path="url(#cp6)"><path class="b" d="m85.2 105c-2.5 0.8-7.7-3.4-13.9-12.3-3.8-5.6-1.2-13.3 5.2-15.3q0.1 0 0.1 0h0.1q0.1-0.1 0.1-0.1c6.5-1.9 13 3.1 12.9 9.8 0 10.2-1.6 17-4.5 17.9z"/></g></g></g><g clip-path="url(#cp7)"><path fill-rule="evenodd" class="c" d="m150.5 73.6h-4.1c-0.2 38.7-31.6 70.1-70.4 70.4v4.3h-0.7v-4.3c-38.9-0.1-70.5-31.6-70.7-70.4h-4.1v-0.7h4.1c0.2-38.8 31.8-70.3 70.7-70.4v-4.2h0.7v4.2c38.8 0.3 70.2 31.7 70.4 70.4h4.1zm-75.2 68.5v-1.9h-2.7v-0.3h2.7v-7.9h-2.7v-0.4h2.7v-7.9h-2.7v-0.3h2.7v-7.9h-2.7v-0.4h2.7v-3.6c-20.9-0.1-37.9-17-38.1-37.9l-3.5 0.1v2.7h-0.3v-2.7h-7.9v2.7h-0.4v-2.7h-7.9v2.7h-0.3v-2.7h-8v2.7h-0.3v-2.7l-2-0.1c0.2 37.7 30.9 68.4 68.7 68.5zm-68.7-69.2h2v-2.7h0.3v2.7h8v-2.7h0.3v2.7h7.9v-2.7h0.4v2.7h7.9v-2.7h0.3v2.7h3.5c0.2-20.8 17.2-37.7 38.1-37.8v-3.6h-2.7v-0.4h2.7v-7.9h-2.7v-0.3h2.7v-7.9h-2.7v-0.4h2.7v-7.9h-2.7v-0.3h2.7v-1.9c-37.8 0.1-68.5 30.7-68.7 68.4zm102.7-2.7v2.7h3.8c-0.2-20.3-16.7-36.8-37.1-37.1v3.6h2.7v0.3h-2.7v7.9h2.7v0.4h-2.7q0 3.9-0.1 7.9h2.8v0.3h-2.8q-0.1 4.1-0.2 8.1-0.2-4-0.3-8.1h-2.8v-0.3h2.8q0-4-0.1-7.9h-2.7v-0.4h2.7v-7.9h-2.7v-0.3h2.7v-3.6c-20.5 0.1-37.2 16.7-37.4 37.1h3.8v-2.7h0.3v2.7l7.9 0.1v-2.8h0.4v2.8q3.9 0 7.9 0v-2.8h0.4v2.8q4 0.1 8.1 0.3-4.1 0.2-8.1 0.2v2.9h-0.4v-2.9q-4 0.1-7.9 0.1v2.8h-0.4v-2.8h-7.9v2.8h-0.3v-2.8h-3.8c0.2 20.5 16.9 37.1 37.4 37.2v-3.6h-2.7v-0.3h2.7v-7.9h-2.7v-0.4h2.7q0.1-3.9 0.1-7.9h-2.8v-0.3h2.8q0.1-4.1 0.3-8.1 0.1 4 0.2 8.1h2.8v0.3h-2.8q0.1 4 0.1 7.9h2.7v0.4h-2.7v7.9h2.7v0.3h-2.7v3.6c20.4-0.3 36.9-16.8 37.1-37.2h-3.8v2.8h-0.3v-2.8h-7.9v2.8h-0.4v-2.8q-3.9 0-7.9-0.1v2.9h-0.4v-2.9q-4 0-8.1-0.2 4.1-0.2 8.1-0.3v-2.8h0.4v2.8q4 0 7.9 0v-2.8h0.4v2.8l7.9-0.1v-2.7zm-33.3-65.7v1.9h2.7v0.3h-2.7v7.9h2.7v0.4h-2.7v7.9h2.7v0.3h-2.7v7.9h2.7v0.4h-2.7v3.6c20.7 0.3 37.5 17.1 37.7 37.8h3.5v-2.7h0.4v2.7h7.9v-2.7h0.3v2.7h8v-2.7h0.3v2.7h7.9v-2.7h0.4v2.7h2c-0.2-37.5-30.8-68.1-68.4-68.4zm68.4 69.1l-2 0.1v2.7h-0.4v-2.7h-7.9v2.7h-0.3v-2.7h-8v2.7h-0.3v-2.7h-7.9v2.7h-0.4v-2.7l-3.5-0.1c-0.2 20.8-17 37.6-37.7 37.9v3.6h2.7v0.4h-2.7v7.9h2.7v0.3h-2.7v7.9h2.7v0.4h-2.7v7.9h2.7v0.3h-2.7v1.8c37.6-0.2 68.2-30.8 68.4-68.4z"/></g><path fill-rule="evenodd" class="d" d="m40.2 173.1c0 3.2-2.5 4.8-4.8 5.1-0.9 0.1-1.4 0.1-2.5 0.1h-6.5v-17.3h6.6c0.9 0 1.3 0 2.2 0.1 2.8 0.3 4.4 2 4.4 4.3 0 1.7-0.9 2.9-2.6 3.5 2.2 0.6 3.2 2 3.2 4.2zm-9.9-5.2h2.4q0.6 0 1.1 0c1.1-0.2 1.7-0.8 1.7-1.9 0-1.2-0.7-1.7-1.7-1.9-0.4-0.1-0.8-0.1-1.2-0.1h-2.3zm5.8 5.1c0-1.4-0.9-2.1-2-2.1q-0.6-0.1-1.2-0.1h-2.6v4.4h2.8c0.4 0 0.8 0 1.1 0 1-0.1 1.9-0.9 1.9-2.2z"/><path class="d" d="m55.3 164.9h-4v7.1c0 2.5-1 3.9-2.6 3.9-1.6 0-2.3-0.8-2.4-2.2-0.1-0.6-0.1-1.4-0.1-1.8v-7h-4v7.9c0 1 0.1 1.8 0.2 2.5 0.3 1.8 1.9 3.3 4.7 3.3 1.2 0 2.2-0.2 3.1-0.8l1.1-1.8v2.3h4z"/><path fill-rule="evenodd" class="d" d="m71.7 174.9c0 0.8 0 1.9 0 2.6-0.2 4.3-3 6.3-7.4 6.3-3.9 0-6.2-1.7-6.5-4.7l-0.1-0.2h3.8l0.1 0.2c0.1 1.1 1.2 1.7 2.8 1.7 1.9 0 3.2-0.9 3.3-2.9q0.1-0.7 0.1-1.6v-0.4l-1 1.5c-0.8 0.5-1.9 0.9-3.3 0.9-3.7 0-6.1-2.6-6.1-6.6 0-4.8 2.9-7.2 6.4-7.2 1.1 0 2.4 0.3 3.1 0.8l0.9 1.4v-1.8h3.9zm-3.9-3.5v-0.3c0-2.8-1.6-3.8-3.1-3.8-1.9 0-3.2 1.2-3.2 4.1 0 2.6 1.2 4.1 3.1 4.1 1.8 0 3.2-1.1 3.2-4.1z"/><path class="d" d="m79.8 164.5c-3.3 0-5.6 1.7-5.6 4.3 0 2.2 1.7 3.4 4.2 4 2.3 0.6 3.2 1.1 3.2 2 0 0.9-0.7 1.3-1.7 1.3-1.1 0-2-0.7-2.3-1.9h-3.9c0.4 3 2.8 4.4 6.2 4.4 3.1 0 5.6-1.3 5.6-4.1 0-2.5-1.6-3.5-4.2-4.2-2.4-0.6-3.1-1.1-3.1-2 0-0.7 0.5-1.2 1.4-1.2 0.9 0 1.5 0.6 1.8 1.7h3.8c-0.3-2.4-2.1-4.3-5.4-4.3z"/><path class="d" d="m100.4 168.2c-0.3-2.3-1.9-3.7-4.7-3.7-1.3 0-2.2 0.3-3.1 0.9l-1.1 1.6v-7.3h-4v18.6h4v-6.2c0-3.4 1.1-4.8 2.7-4.8 1.5 0 2.3 0.8 2.4 2.2 0 0.6 0 1.3 0 1.8v7h4v-7.6c0-1.1-0.1-1.8-0.2-2.5z"/><path fill-rule="evenodd" class="d" d="m116.6 171.6c0 4.2-2.6 7-7 7-4.5 0-7.1-2.8-7.1-7 0-4.2 2.6-7.1 7.1-7.1 4.4 0 7 2.9 7 7.1zm-4 0c0-2.8-1.2-4.3-3-4.3-1.9 0-3 1.5-3 4.3 0 2.8 1.1 4.3 3 4.3 1.8 0 3-1.5 3-4.3z"/><path class="d" d="m123.5 167.5h2.8v-2.5h-2.8v-3.4h-4v3.4h-2v2.5h2v6.2c0 0.7 0 1.3 0.1 2 0.1 2 1.1 2.9 4 2.9 0.9 0 1.7-0.1 2.4-0.2v-2.5c-2 0.1-2.4-0.2-2.5-1.5 0-0.4 0-0.8 0-1.3z"/></svg>